
<svg xmlns="http://www.w3.org/2000/svg" viewBox="107 50 76 53">
    <g xmlns="http://www.w3.org/2000/svg">
        <polygon style="fill:hsl(220, 100%, 45%);" points="182.461,102.668 168.603,102.668 168.603,79.425 144.832,67.346 121.061,79.425 121.061,97.731 124.853,97.731 124.853,82.861 144.832,72.709 164.812,82.861 164.812,102.668 159.876,102.668 159.876,85.891 144.832,78.246 129.789,85.891 129.789,102.668 116.124,102.668 116.124,76.396 144.832,61.809 173.54,76.396 173.54,97.731 177.524,97.731 177.524,72.816 144.832,56.203 112.14,72.816 112.14,102.668 107.203,102.668 107.203,69.787 144.832,50.667 182.461,69.787"/>
    </g>
</svg>