<?xml version="1.0" encoding="UTF-8" standalone="no"?>
<svg
   viewBox="107 50 5714.7969 2751.8096"
   version="1.1"
   id="svg1"
   width="5714.7969"
   height="2751.8096"
   xmlns="http://www.w3.org/2000/svg"
   xmlns:svg="http://www.w3.org/2000/svg">
  <defs
     id="defs1" />
  <path
     style="fill:#ffffff;fill-opacity:1;stroke-width:0.0665829"
     d="m 81.23534,61.21242 c 0.0244,-6.76258 0.0451,-14.155776 0.0461,-16.429327 l 0.002,-4.13373 4.80884,-2.439515 C 96.09837,33.133763 115.79804,23.127647 117.271,22.373128 l 1.53448,-0.786031 18.77331,9.539343 18.77331,9.539344 0.0168,16.421126 0.0168,16.421125 h -6.89128 -6.89128 l -0.0168,-11.667585 -0.0168,-11.667566 -11.84651,-6.020483 c -11.21462,-5.699347 -11.85702,-6.016519 -12.04335,-5.946187 -0.17106,0.06457 -12.5878,6.348303 -20.85385,10.553505 l -2.79649,1.422658 -0.0169,9.199263 -0.0169,9.19925 h 1.93114 c 1.06213,0 1.93717,-0.008 1.94454,-0.0167 0.007,-0.009 0.0298,-3.35146 0.0499,-7.42734 l 0.0365,-7.410684 9.92086,-5.047294 9.92085,-5.047294 2.3304,1.183809 c 1.28172,0.651095 5.73113,2.910404 9.88756,5.020686 4.15644,2.110282 7.57843,3.858131 7.60441,3.884111 0.026,0.02598 0.0559,4.488866 0.0666,9.917516 l 0.0193,9.870295 -2.41338,-10e-6 -2.41337,-1e-5 -0.0169,-8.436205 -0.0169,-8.43621 -2.7299,-1.38568 c -1.50144,-0.76213 -4.87777,-2.471412 -7.50295,-3.798406 l -4.77306,-2.412718 -4.14905,2.078667 c -2.28198,1.143267 -5.68463,2.860387 -7.56143,3.815817 l -3.41238,1.73714 v 8.4188 8.418795 l -6.77481,1e-5 -6.77481,10e-6 0.0193,-13.099535 c 0.0106,-7.20474 0.0406,-13.119547 0.0666,-13.144016 0.026,-0.02447 6.45921,-3.302026 14.29602,-7.283464 l 14.24874,-7.238976 2.03515,1.024004 c 1.11933,0.563203 7.55286,3.825481 14.29673,7.249507 l 12.26158,6.225503 0.006,4.727387 c 0.004,2.600065 0.0135,4.997045 0.0222,5.326635 0.009,0.32958 0.0218,3.00372 0.029,5.94252 l 0.013,5.34328 h 2.03078 2.03078 l -1.4e-4,-12.50094 -1.2e-4,-12.500939 -7.27255,-3.695351 c -18.2342,-9.265229 -25.32794,-12.849114 -25.43405,-12.849757 -0.12798,-7.77e-4 -1.46218,0.673641 -28.44944,14.38079 l -4.26131,2.164368 -0.0168,14.964509 -0.0168,14.964515 H 83.63216 81.191 Z"
     id="path2" />
</svg>
